<?xml version="1.0" encoding="UTF-8"?><svg id="a" xmlns="http://www.w3.org/2000/svg" viewBox="0 0 235.52 225.07"><defs><style>.b{fill:#231f20;stroke:#231f20;stroke-miterlimit:10;}</style></defs><path class="b" d="M54.16,38.64c17.4-14.01,39.52-22.39,63.6-22.39s45.94,8.29,63.3,22.16l9.86-12.27C170.87,10.09,145.44,.5,117.76,.5S64.4,10.19,44.3,26.37l9.86,12.27Z"/><path class="b" d="M75.51,210.09c-34.97-16.03-59.26-51.34-59.26-92.33,0-1.2,.03-2.4,.07-3.59l-15.73-.56c-.05,1.38-.08,2.76-.08,4.14,0,47.34,28.06,88.13,68.45,106.65l6.55-14.32Z"/><path class="b" d="M219.19,113.57c.06,1.39,.09,2.79,.09,4.2,0,40.99-24.29,76.3-59.26,92.33l6.55,14.32c40.39-18.52,68.45-59.3,68.45-106.65,0-1.59-.04-3.18-.1-4.75l-15.73,.56Z"/></svg>